<svg xmlns="http://www.w3.org/2000/svg" xml:space="preserve" width="7.11111in" height="7.11111in" version="1.1" style="shape-rendering:geometricPrecision; text-rendering:geometricPrecision; image-rendering:optimizeQuality; fill-rule:evenodd; clip-rule:evenodd" viewBox="0 0 7111 7111" xmlns:xlink="http://www.w3.org/1999/xlink">
 <defs>
  <style type="text/css">
   
    .fil0 {fill:black}
   
  </style>
 </defs>
 <g id="Layer_x0020_1">
  <metadata id="CorelCorpID_0Corel-Layer"></metadata>
  <path class="fil0" d="M6988 6936l-6865 0c-67,0 -121,-54 -121,-121l0 -535c0,-67 54,-121 121,-121l6865 0c67,0 121,54 121,121l0 535c0,67 -54,121 -121,121z" id="id_106" style="fill: rgb(227, 187, 68);"></path>
  <g id="_297387160">
   <path class="fil0" d="M730 6039l0 -2903c0,-67 54,-121 121,-121l719 0c67,0 121,54 121,121l0 2903 -961 0z" id="id_107" style="fill: rgb(227, 187, 66);"></path>
   <path class="fil0" d="M2294 6039l0 -1517c0,-67 54,-121 120,-121l719 0c67,0 121,54 121,121l0 1517 -960 0z" id="id_108" style="fill: rgb(224, 184, 62);"></path>
   <path class="fil0" d="M3857 6039l0 -2257c0,-67 54,-121 121,-121l719 0c66,0 120,54 120,121l0 2257 -960 0z" id="id_109" style="fill: rgb(237, 192, 57);"></path>
   <path class="fil0" d="M5421 6039l0 -4279c0,-67 54,-121 120,-121l719 0c67,0 121,54 121,121l0 4279 -960 0z" id="id_110" style="fill: rgb(230, 186, 55);"></path>
  </g>
  <path class="fil0" d="M3184 3028c-54,0 -103,-36 -117,-90 -17,-64 21,-130 85,-148l861 -230c64,-17 130,21 148,85 17,65 -21,131 -86,148l-860 231c-11,2 -21,4 -31,4zm-578 -76c-21,0 -41,-6 -60,-17l-1081 -623c-58,-34 -78,-108 -44,-165 33,-58 107,-78 165,-44l1080 623c58,34 78,108 44,165 -22,39 -63,61 -104,61zm1934 -487c-26,0 -52,-8 -73,-25 -54,-40 -64,-116 -23,-169l1128 -1482c40,-53 116,-64 169,-23 53,40 63,116 23,169l-1128 1482c-24,31 -60,48 -96,48z" id="id_111" style="fill: rgb(230, 186, 53);"></path>
  <path class="fil0" d="M5859 1047c-240,0 -436,-196 -436,-436 0,-240 196,-436 436,-436 240,0 436,196 436,436 0,240 -196,436 -436,436z" id="id_112" style="fill: rgb(230, 188, 62);"></path>
  <path class="fil0" d="M4349 3031c-241,0 -436,-196 -436,-436 0,-241 195,-436 436,-436 240,0 436,195 436,436 0,240 -196,436 -436,436z" id="id_113" style="fill: rgb(227, 186, 63);"></path>
  <path class="fil0" d="M2879 3425c-240,0 -436,-196 -436,-436 0,-241 196,-436 436,-436 240,0 436,195 436,436 0,240 -196,436 -436,436z" id="id_114" style="fill: rgb(232, 188, 55);"></path>
  <path class="fil0" d="M1252 2485c-240,0 -436,-195 -436,-436 0,-240 196,-436 436,-436 241,0 436,196 436,436 0,241 -196,436 -436,436z" id="id_115" style="fill: rgb(232, 189, 60);"></path>
 </g>
</svg>